<svg width="320" height="118" viewBox="0 0 320 118" fill="none" xmlns="http://www.w3.org/2000/svg">
<rect width="320" height="118" fill="white"/>
<g clip-path="url(#clip0_12802_3880)">
<path d="M240.99 89.8633H80.338L93.1379 102.65L240.99 89.8633Z" fill="#8529CD"/>
<path d="M95.2228 38.1164V40.0037C92.4944 38.0654 89.2345 37.0152 85.8874 36.9964C74.6331 36.9964 66.086 47.2628 66.086 59.8625C66.086 72.4622 74.6331 82.7287 85.8874 82.7287C89.2345 82.7098 92.4944 81.6597 95.2228 79.7213V81.6502H105.118V38.0956L95.2228 38.1164ZM85.8874 72.2652C80.338 72.2652 76.2719 66.8105 76.2719 59.904C76.2719 52.9975 80.338 47.5428 85.8874 47.5428C91.4368 47.5428 95.3576 53.0079 95.3576 59.904C95.3576 66.8001 91.4575 72.2652 85.8978 72.2652H85.8874Z" fill="#8529CD"/>
<path d="M174.48 38.1163V63.7098C174.48 68.5216 171.171 72.5763 166.369 72.5763C161.566 72.5763 158.268 68.5216 158.268 63.7098V38.1163H148.362V63.7098C148.362 74.2148 155.55 82.7701 166.058 82.7701C169.067 82.7247 171.995 81.7862 174.47 80.0739V81.6916H184.355V38.1371L174.48 38.1163Z" fill="#8529CD"/>
<path d="M266.662 81.6917V56.0878C266.662 51.2865 269.96 47.2317 274.773 47.2317C279.586 47.2317 282.874 51.2865 282.874 56.0878V81.6917H292.77V56.0878C292.77 45.5829 285.582 37.0379 275.074 37.0379C272.065 37.0834 269.137 38.0218 266.662 39.7341V38.1164H256.766V81.6709L266.662 81.6917Z" fill="#8529CD"/>
<path d="M37.5819 81.6916V64.809H44.8428L57.57 81.6916H70.5669L55.205 61.3247C58.4529 59.0199 60.8836 55.7423 62.1455 51.9656C63.4075 48.1888 63.4354 44.1087 62.2252 40.3151C61.015 36.5215 58.6294 33.2109 55.4134 30.862C52.1973 28.5131 48.3174 27.2476 44.3345 27.2484H27.23V81.6916H37.5819ZM37.5819 37.5874H44.3345C46.5738 37.5874 48.7214 38.4768 50.3048 40.0598C51.8883 41.6429 52.7778 43.7899 52.7778 46.0287C52.7778 48.2675 51.8883 50.4146 50.3048 51.9976C48.7214 53.5807 46.5738 54.47 44.3345 54.47H37.5819V37.5874Z" fill="#8529CD"/>
<path d="M211.033 71.3837C210.059 72.0528 208.907 72.4141 207.725 72.4207C206.106 72.4207 203.067 71.1867 203.067 67.0801V48.4139H211.521V38.0437H203.067V27.2484H193.172V38.1163H187.985V48.4864H193.172V67.2875C193.172 77.025 200.495 82.8427 207.88 82.8427C211.284 82.7496 214.61 81.8086 217.558 80.105L211.033 71.3837Z" fill="#8529CD"/>
<path d="M129.712 58.5351L146.681 38.106H132.813L120.947 53.2982V23.65H110.751V81.6916H120.947V63.7928L135.531 81.6916H149.399L129.712 58.5351Z" fill="#8529CD"/>
<path d="M233.884 37.0068C222.474 37.0068 214.176 47.0658 214.176 59.904C214.176 73.3852 224.487 82.8013 234.828 82.8013C240.015 82.8013 246.736 81.0176 252.348 73.043L243.655 68.0031C236.892 77.9584 225.628 72.9082 224.331 62.9528H252.835C255.273 47.2628 245.149 37.0068 233.884 37.0068ZM242.525 54.273H224.705C226.789 44.0688 240.595 43.4881 242.525 54.273Z" fill="#8529CD"/>
</g>
<defs>
<clipPath id="clip0_12802_3880">
<rect width="265.54" height="79.85" fill="white" transform="translate(27.23 23.65)"/>
</clipPath>
</defs>
</svg>
