<svg width="256" height="77" viewBox="0 0 256 77" fill="none" xmlns="http://www.w3.org/2000/svg">
<g clip-path="url(#clip0_8655_3038)">
<path d="M206.08 63.85H51.2L63.54 76.18L206.08 63.85Z" fill="#8529CD"/>
<path d="M65.55 13.95V15.77C62.9196 13.9008 59.7769 12.8882 56.55 12.87C45.7 12.87 37.46 22.77 37.46 34.92C37.46 47.07 45.7 56.97 56.55 56.97C59.7769 56.9518 62.9196 55.9392 65.55 54.07V55.93H75.09V13.93L65.55 13.95ZM56.55 46.88C51.2 46.88 47.28 41.62 47.28 34.96C47.28 28.3 51.2 23.04 56.55 23.04C61.9 23.04 65.68 28.31 65.68 34.96C65.68 41.61 61.92 46.88 56.56 46.88H56.55Z" fill="#8529CD"/>
<path d="M141.96 13.95V38.63C141.96 43.27 138.77 47.18 134.14 47.18C129.51 47.18 126.33 43.27 126.33 38.63V13.95H116.78V38.63C116.78 48.76 123.71 57.01 133.84 57.01C136.741 56.9661 139.564 56.0612 141.95 54.41V55.97H151.48V13.97L141.96 13.95Z" fill="#8529CD"/>
<path d="M230.83 55.97V31.28C230.83 26.65 234.01 22.74 238.65 22.74C243.29 22.74 246.46 26.65 246.46 31.28V55.97H256V31.28C256 21.15 249.07 12.91 238.94 12.91C236.039 12.9539 233.216 13.8588 230.83 15.51V13.95H221.29V55.95L230.83 55.97Z" fill="#8529CD"/>
<path d="M9.98 55.97V39.69H16.98L29.25 55.97H41.78L26.97 36.33C30.1012 34.1075 32.4445 30.9469 33.6611 27.3049C34.8778 23.663 34.9047 19.7285 33.738 16.0703C32.5712 12.4121 30.2714 9.21965 27.1708 6.95459C24.0703 4.68953 20.3298 3.46918 16.49 3.46997H0V55.97H9.98ZM9.98 13.44H16.49C18.6489 13.44 20.7193 14.2976 22.2459 15.8241C23.7724 17.3507 24.63 19.4211 24.63 21.58C24.63 23.7388 23.7724 25.8093 22.2459 27.3358C20.7193 28.8624 18.6489 29.72 16.49 29.72H9.98V13.44Z" fill="#8529CD"/>
<path d="M177.2 46.03C176.261 46.6752 175.149 47.0236 174.01 47.03C172.45 47.03 169.52 45.84 169.52 41.88V23.88H177.67V13.88H169.52V3.46997H159.98V13.95H154.98V23.95H159.98V42.08C159.98 51.47 167.04 57.08 174.16 57.08C177.441 56.9902 180.648 56.0828 183.49 54.44L177.2 46.03Z" fill="#8529CD"/>
<path d="M98.8 33.64L115.16 13.94H101.79L90.35 28.59V0H80.52V55.97H90.35V38.71L104.41 55.97H117.78L98.8 33.64Z" fill="#8529CD"/>
<path d="M199.23 12.88C188.23 12.88 180.23 22.58 180.23 34.96C180.23 47.96 190.17 57.04 200.14 57.04C205.14 57.04 211.62 55.32 217.03 47.63L208.65 42.77C202.13 52.37 191.27 47.5 190.02 37.9H217.5C219.85 22.77 210.09 12.88 199.23 12.88ZM207.56 29.53H190.38C192.39 19.69 205.7 19.13 207.56 29.53Z" fill="#8529CD"/>
</g>
<defs>
<clipPath id="clip0_8655_3038">
<rect width="256" height="77" fill="white"/>
</clipPath>
</defs>
</svg>
