<svg width="256" height="63" viewBox="0 0 256 63" fill="none" xmlns="http://www.w3.org/2000/svg">
<g clip-path="url(#clip0_24364_4169)">
<path d="M170.016 52.6721H42.24L52.4192 62.8513L170.016 52.6721Z" fill="white"/>
<path d="M54.0768 11.504V13.0432C51.7056 11.5328 49.5776 10.6528 46.6624 10.6528C37.712 10.6528 30.9088 18.816 30.9088 28.8416C30.9088 38.8672 37.7088 47.0272 46.6624 47.0272C49.5744 47.0272 51.7024 46.1504 54.0768 44.6368V46.1728H61.9456V11.504H54.0768ZM46.6624 38.6784C42.2496 38.6784 39.0176 34.3328 39.0176 28.8416C39.0176 23.3504 42.2496 19.008 46.6624 19.008C51.0752 19.008 54.1952 23.3536 54.1952 28.8416C54.1952 34.3296 51.0816 38.6784 46.6624 38.6784Z" fill="white"/>
<path d="M117.11 11.5042V31.8721C117.11 35.6929 114.486 38.9185 110.662 38.9185C106.838 38.9185 104.214 35.6929 104.214 31.8721V11.5042H96.3456V31.8721C96.3456 40.2305 102.064 47.0274 110.419 47.0274C114.291 47.0274 117.107 44.8866 117.107 44.8866V46.1762H124.976V11.5042H117.107H117.11Z" fill="white"/>
<path d="M190.432 46.176V25.808C190.432 21.9872 193.056 18.7616 196.88 18.7616C200.704 18.7616 203.328 21.9872 203.328 25.808V46.176H211.197V25.808C211.197 17.4496 205.478 10.6528 197.123 10.6528C193.251 10.6528 190.435 12.7936 190.435 12.7936V11.504H182.566V46.176H190.435H190.432Z" fill="white"/>
<path d="M8.2304 46.176V32.7424H14.0512L24.128 46.176H34.4288L22.2528 29.968C26.048 27.2448 28.5408 22.816 28.5408 17.7984C28.5408 9.55839 21.84 2.86719 13.6 2.86719H0V46.1792H8.2304V46.176ZM8.2304 11.088H13.6C17.296 11.088 20.3168 14.0928 20.3168 17.7984C20.3168 21.504 17.296 24.5152 13.6 24.5152H8.2304V11.088Z" fill="white"/>
<path d="M146.189 37.9712C145.482 38.4512 144.589 38.8224 143.558 38.8224C142.272 38.8224 139.85 37.84 139.85 34.5696V19.7312H146.579V11.5008H139.85V2.86401H131.981V11.504H127.818V19.7344H131.981V34.6912C131.981 42.432 137.811 47.0592 143.68 47.0592C145.866 47.0592 148.902 46.3424 151.376 44.8768L146.189 37.9744V37.9712Z" fill="white"/>
<path d="M81.5072 27.7568L95.0048 11.504H83.9744L74.5344 23.5808V0H66.432V46.176H74.5344V31.9328L86.1408 46.176H97.1648L81.5072 27.7568Z" fill="white"/>
<path d="M164.365 10.624C155.258 10.624 148.723 18.6272 148.723 28.8384C148.723 39.5776 156.925 47.056 165.146 47.056C169.296 47.056 174.614 45.632 179.082 39.296L172.131 35.2832C166.755 43.2064 157.798 39.184 156.762 31.2608L179.427 31.2672C181.366 18.8128 173.315 10.624 164.362 10.624H164.365ZM171.235 24.3648H157.062C158.72 16.2432 169.702 15.7792 171.235 24.3648Z" fill="white"/>
<path d="M234.794 32.1024H222.022V23.9744H234.794V11.0496H243.229V23.9744H256V32.1024H243.229V45.104H234.794V32.1024Z" fill="white"/>
</g>
<defs>
<clipPath id="clip0_24364_4169">
<rect width="256" height="62.8512" fill="white"/>
</clipPath>
</defs>
</svg>
