<svg width="97" height="29" viewBox="0 0 97 29" fill="none" xmlns="http://www.w3.org/2000/svg">
<g clip-path="url(#clip0_2_21852)">
<path id="slash" d="M77.6145 24.0474H19.2831L23.9306 28.6911L77.6145 24.0474Z" fill="#8529CD"/>
<path d="M24.6876 5.25392V5.93937C23.697 5.2354 22.5133 4.85401 21.298 4.84717C17.2117 4.84717 14.1083 8.57573 14.1083 13.1517C14.1083 17.7277 17.2117 21.4563 21.298 21.4563C22.5133 21.4494 23.697 21.068 24.6876 20.364V21.0646H28.2806V5.24639L24.6876 5.25392ZM21.298 17.6561C19.2831 17.6561 17.8067 15.6751 17.8067 13.1668C17.8067 10.6585 19.2831 8.67743 21.298 8.67743C23.3129 8.67743 24.7366 10.6622 24.7366 13.1668C24.7366 15.6713 23.3205 17.6561 21.3018 17.6561H21.298Z" fill="#8529CD"/>
<path d="M53.4654 5.25391V14.549C53.4654 16.2965 52.264 17.7691 50.5202 17.7691C48.7765 17.7691 47.5788 16.2965 47.5788 14.549V5.25391H43.9821V14.549C43.9821 18.3642 46.5921 21.4713 50.4073 21.4713C51.4999 21.4548 52.5631 21.114 53.4617 20.4921V21.0796H57.0509V5.26144L53.4654 5.25391Z" fill="#8529CD"/>
<path d="M86.936 21.0796V11.7808C86.936 10.037 88.1337 8.56439 89.8812 8.56439C91.6287 8.56439 92.8226 10.037 92.8226 11.7808V21.0796H96.4156V11.7808C96.4156 7.96556 93.8056 4.86218 89.9904 4.86218C88.8977 4.87869 87.8346 5.21952 86.936 5.84141V5.25387H83.343V21.072L86.936 21.0796Z" fill="#8529CD"/>
<path id="r" d="M3.7587 21.0796V14.9482H6.39507L11.0162 21.0796H15.7353L10.1575 13.6827C11.3368 12.8457 12.2194 11.6553 12.6776 10.2837C13.1358 8.91205 13.1459 7.43024 12.7065 6.05246C12.2671 4.67469 11.4009 3.47235 10.2332 2.61927C9.06544 1.7662 7.65667 1.30659 6.21052 1.30688H0V21.0796H3.7587ZM3.7587 5.06182H6.21052C7.0236 5.06182 7.80337 5.38482 8.37831 5.95975C8.95324 6.53468 9.27623 7.31446 9.27623 8.12753C9.27623 8.94061 8.95324 9.72039 8.37831 10.2953C7.80337 10.8703 7.0236 11.1932 6.21052 11.1932H3.7587V5.06182Z" fill="#8529CD"/>
<path d="M66.7377 17.336C66.384 17.579 65.9654 17.7102 65.5363 17.7126C64.9488 17.7126 63.8453 17.2644 63.8453 15.773V8.99377H66.9147V5.22754H63.8453V1.30688H60.2523V5.2539H58.3691V9.02013H60.2523V15.8483C60.2523 19.3848 62.9112 21.4977 65.5928 21.4977C66.8286 21.4639 68.0364 21.1221 69.1067 20.5034L66.7377 17.336Z" fill="#8529CD"/>
<path d="M37.2104 12.6696L43.3719 5.25013H38.3365L34.0279 10.7677V0H30.3257V21.0796H34.0279V14.5791L39.3232 21.0796H44.3587L37.2104 12.6696Z" fill="#8529CD"/>
<path d="M75.0346 4.85095C70.8918 4.85095 67.8788 8.5042 67.8788 13.1668C67.8788 18.0629 71.6224 21.4826 75.3774 21.4826C77.2605 21.4826 79.701 20.8348 81.7385 17.9386L78.5824 16.1082C76.1268 19.7238 72.0367 17.8897 71.5659 14.2741H81.9155C82.8006 8.57576 79.1248 4.85095 75.0346 4.85095ZM78.1719 11.1217H71.7015C72.4585 7.41576 77.4714 7.20485 78.1719 11.1217V11.1217Z" fill="#8529CD"/>
</g>
<defs>
<clipPath id="clip0_2_21852">
<rect width="96.4156" height="29" fill="white"/>
</clipPath>
</defs>
</svg>
