<svg width="128" height="128" viewBox="0 0 128 128" fill="none" xmlns="http://www.w3.org/2000/svg">
<g clip-path="url(#clip0_24109_1305)">
<g clip-path="url(#clip1_24109_1305)">
<path d="M21.3232 107.787L9.51233 97.8799H92.3295L21.3232 107.787Z" fill="#B1884C"/>
<path d="M34.7715 90.4442V68.491H44.2828L60.7503 90.4442H77.588L57.6842 63.9543C63.8842 59.5011 67.962 52.2634 67.962 44.0661C67.9672 30.6022 57.0167 19.6621 43.5476 19.6621H21.3232V90.4442H34.7715ZM34.7715 33.1H43.5476C49.586 33.1 54.5242 38.012 54.5242 44.0661C54.5242 50.1202 49.586 55.0427 43.5476 55.0427H34.7715V33.1Z" fill="#B1884C"/>
<path d="M103.629 59.7518V45.1929H92.5642V59.7518H78.1773V70.4729H92.5642V85.1205H103.629V70.4729H118.016V59.7518H103.629Z" fill="#B1884C"/>
</g>
</g>
<defs>
<clipPath id="clip0_24109_1305">
<rect width="128" height="128" fill="white"/>
</clipPath>
<clipPath id="clip1_24109_1305">
<rect width="108.504" height="88.1256" fill="white" transform="translate(9.51233 19.6621)"/>
</clipPath>
</defs>
</svg>
