<svg width="96" height="78" viewBox="0 0 96 78" fill="none" xmlns="http://www.w3.org/2000/svg">
<g clip-path="url(#clip0_24364_4224)">
<path d="M10.4498 77.97L0 69.2041H73.2734L10.4498 77.97Z" fill="white"/>
<path d="M22.3483 62.6251V43.2018H30.7636L45.3333 62.6251H60.2307L42.6205 39.188C48.1061 35.248 51.714 28.8443 51.714 21.5917C51.7186 9.67935 42.03 0 30.113 0H10.4498V62.6251H22.3483ZM22.3483 11.8893H30.113C35.4556 11.8893 39.8247 16.2353 39.8247 21.5917C39.8247 26.9481 35.4556 31.3033 30.113 31.3033H22.3483V11.8893Z" fill="white"/>
<path d="M83.271 35.4696V22.5884H73.4809V35.4696H60.752V44.9552H73.4809V57.9148H83.271V44.9552H95.9999V35.4696H83.271Z" fill="white"/>
</g>
<defs>
<clipPath id="clip0_24364_4224">
<rect width="96" height="77.97" fill="white"/>
</clipPath>
</defs>
</svg>
